<svg xmlns="http://www.w3.org/2000/svg" version="1.1" xmlns:xlink="http://www.w3.org/1999/xlink" width="1500" height="1500" viewBox="0 0 1500 1500"><rect width="1500" height="1500" x="0" y="0" id="background" stroke="transparent" fill="#2f2a29"></rect><svg xml:space="preserve" width="1000" height="1000" data-version="2" data-id="lg_OmDbE7UpN8ZRNqf5yq" viewBox="0 0 571 210" x="250" y="250"><rect width="100%" height="100%" fill="transparent"></rect><rect width="212.91" height="603.96" x="-106.45" y="-301.98" fill="#e84613" rx="104" ry="104" transform="rotate(-90 202.22 -90.38)scale(.9037)"></rect><rect width="212.91" height="603.96" x="-106.45" y="-301.98" fill="#d6ecba" rx="104" ry="104" transform="matrix(0 -.9037 .9037 0 278.4 98.16)"></rect><path fill="#e84613" d="m60.65 130.42 3.03-17.82q9.93 2.48 17.87 2.48 7.94 0 12.8-.64v-5.4l-9.72-.87q-13.18-1.19-18.09-6.32-4.91-5.13-4.91-15.17 0-13.82 5.99-19.01 5.99-5.18 20.36-5.18 14.36 0 25.92 2.7l-2.7 17.28q-10.05-1.62-16.09-1.62-6.05 0-10.26.54v5.29l7.77.76q14.15 1.4 19.55 6.75 5.4 5.34 5.4 14.85 0 6.8-1.84 11.5-1.83 4.7-4.37 7.13-2.54 2.43-7.18 3.72-4.65 1.3-8.16 1.57t-9.34.27q-14.04 0-26.03-2.81" paint-order="stroke"></path><rect width="56.92" height="70.74" x="-28.46" y="-35.37" fill="none" rx="0" ry="0" transform="translate(89.61 98.36)"></rect><path fill="#e84613" d="M141.76 131.61h-22.79l17.5-67.5h33.37l17.5 67.5h-22.79l-2.48-10.69h-17.82Zm10.8-46.77-4.43 18.9h9.94l-4.32-18.9Z" paint-order="stroke"></path><rect width="68.37" height="67.5" x="-34.19" y="-33.75" fill="none" rx="0" ry="0" transform="translate(153.66 98.36)"></rect><path fill="#e84613" d="M191.44 131.61v-67.5h21.6v67.5Z" paint-order="stroke"></path><rect width="21.6" height="67.5" x="-10.8" y="-33.75" fill="none" rx="0" ry="0" transform="translate(202.74 98.36)"></rect><path fill="#e84613" d="M267.04 131.61h-43.2v-67.5h21.6v50.22h21.6Z" paint-order="stroke"></path><rect width="43.2" height="67.5" x="-21.6" y="-33.75" fill="none" rx="0" ry="0" transform="translate(245.94 98.36)"></rect><path fill="#e84613" d="M316.18 131.61h-43.2v-67.5h21.6v50.22h21.6Z" paint-order="stroke"></path><rect width="43.2" height="67.5" x="-21.6" y="-33.75" fill="none" rx="0" ry="0" transform="translate(295.08 98.36)"></rect><path fill="#e84613" d="M365.32 106.12h-21.6v8.21h26.46v17.28h-48.06v-67.5h47.52l-2.7 17.28h-23.22v9.07h21.6Z" paint-order="stroke"></path><rect width="48.06" height="67.5" x="-24.03" y="-33.75" fill="none" rx="0" ry="0" transform="translate(346.65 98.36)"></rect><path fill="#e84613" d="m419 131.61-16.53-23.98q-.86-1.19-1.08-5.18h-.43v29.16h-21.6v-67.5h20.31l16.52 23.97q.86 1.19 1.08 5.19h.43V64.11h21.6v67.5Z" paint-order="stroke"></path><rect width="59.94" height="67.5" x="-29.97" y="-33.75" fill="none" rx="0" ry="0" transform="translate(409.83 98.36)"></rect><path fill="#e84613" d="M498.16 81.39H482.5v50.22h-21.6V81.39h-15.66V64.11h52.92Z" paint-order="stroke"></path><rect width="52.92" height="67.5" x="-26.46" y="-33.75" fill="none" rx="0" ry="0" transform="translate(472.2 98.36)"></rect></svg></svg>